<svg width="322" height="112" viewBox="0 0 322 112" fill="none" xmlns="http://www.w3.org/2000/svg">
<path d="M46.5 91.9502C34.0736 91.9502 24 81.8766 24 69.4502C24 57.0238 34.0736 46.9502 46.5 46.9502C58.9264 46.9502 69 57.0238 69 69.4502C69 81.8766 58.9264 91.9502 46.5 91.9502Z" fill="#97CF26"/>
<path d="M48.5 45C42.701 45 38 40.299 38 34.5C38 28.701 42.701 24 48.5 24C54.299 24 59 28.701 59 34.5C59 40.299 54.299 45 48.5 45Z" fill="#A169F7"/>
<path d="M86.5 89C78.4919 89 72 82.5081 72 74.5C72 66.4919 78.4919 60 86.5 60C94.5081 60 101 66.4919 101 74.5C101 82.5081 94.5081 89 86.5 89Z" fill="#FF6163"/>
<path d="M79.5 58C69.2827 58 61 49.7173 61 39.5C61 29.2827 69.2827 21 79.5 21C89.7173 21 98 29.2827 98 39.5C98 49.7173 89.7173 58 79.5 58Z" fill="#00AAFF"/>
<path d="M145.969 86.7778H157.623L136.04 28.0098H127.587L106 86.7798H117.655L121.777 75.5618H141.847L145.969 86.7798L125.023 66.7178L131.813 48.2378L138.599 66.7178H125.023L145.969 86.7778ZM186.513 46.6558L175.788 75.8498L165.068 46.6558H154.118L168.86 86.7778H182.718L197.458 46.6558H186.511M202.041 46.6558H212.991V86.7778H202.041V46.6558Z" fill="black"/>
<path d="M207.553 42.1C211.447 42.1 214.603 38.9436 214.603 35.05C214.603 31.1564 211.447 28 207.553 28C203.659 28 200.503 31.1564 200.503 35.05C200.503 38.9436 203.659 42.1 207.553 42.1Z" fill="black"/>
<path d="M251.653 55.4979V46.6559H238.536V35.5879H227.593V46.6559H218.933V55.4979H227.593V72.7599C227.593 81.6639 232.045 87.6069 243.413 87.6069C247.803 87.6069 251.653 85.9949 251.653 85.9949L250.323 77.3319C250.323 77.3319 248.168 77.9759 245.518 77.9759C242.27 77.9759 238.536 76.5759 238.536 72.0859V55.4969L251.653 55.4979ZM276.763 77.6069C270.658 77.6069 265.711 72.7669 265.711 66.7969C265.711 60.8319 270.658 55.9909 276.761 55.9909C282.868 55.9909 287.813 60.8329 287.813 66.7979C287.813 72.7679 282.868 77.6069 276.763 77.6069ZM276.763 45.6319C264.895 45.6319 255.27 55.0469 255.27 66.6519C255.27 78.2619 264.895 87.6719 276.762 87.6719C288.624 87.6719 298.249 78.2619 298.249 66.6519C298.249 55.0469 288.624 45.6319 276.761 45.6319" fill="black"/>
</svg>
